{
  "accessors": [
    {
      "bufferView": 2,
      "componentType": 5126,
      "count": 7693,
      "max": [
        0.13045914471149445,
        1.2991514205932617,
        0.32097184658050537
      ],
      "min": [
        -0.31647324562072754,
        0.00025450109387747943,
        -0.32097184658050537
      ],
      "type": "VEC3"
    },
    {
      "bufferView": 2,
      "byteOffset": 92316,
      "componentType": 5126,
      "count": 7693,
      "max": [
        1.0,
        1.0,
        1.0
      ],
      "min": [
        -1.0,
        -1.0,
        -1.0
      ],
      "type": "VEC3"
    },
    {
      "bufferView": 3,
      "componentType": 5126,
      "count": 7693,
      "max": [
        1.0,
        1.0,
        1.0,
        1.0
      ],
      "min": [
        -1.0,
        -1.0,
        -1.0,
        1.0
      ],
      "type": "VEC4"
    },
    {
      "bufferView": 1,
      "componentType": 5126,
      "count": 7693,
      "max": [
        0.9964861869812012,
        0.9975038766860962
      ],
      "min": [
        0.003312446642667055,
        0.004105403088033199
      ],
      "type": "VEC2"
    },
    {
      "bufferView": 1,
      "byteOffset": 61544,
      "componentType": 5126,
      "count": 7693,
      "max": [
        0.9964861869812012,
        0.9975038766860962
      ],
      "min": [
        0.003312446642667055,
        0.004105403088033199
      ],
      "type": "VEC2"
    },
    {
      "bufferView": 1,
      "byteOffset": 123088,
      "componentType": 5126,
      "count": 7693,
      "max": [
        0.9964861869812012,
        0.9975038766860962
      ],
      "min": [
        0.003312446642667055,
        0.004105403088033199
      ],
      "type": "VEC2"
    },
    {
      "bufferView": 1,
      "byteOffset": 184632,
      "componentType": 5126,
      "count": 7693,
      "max": [
        0.9964861869812012,
        0.9975038766860962
      ],
      "min": [
        0.003312446642667055,
        0.004105403088033199
      ],
      "type": "VEC2"
    },
    {
      "bufferView": 0,
      "componentType": 5125,
      "count": 32712,
      "type": "SCALAR"
    },
    {
      "bufferView": 2,
      "byteOffset": 184632,
      "componentType": 5126,
      "count": 7693,
      "max": [
        0.13045914471149445,
        1.2991514205932617,
        0.32097184658050537
      ],
      "min": [
        -0.31647324562072754,
        0.00025450109387747943,
        -0.32097184658050537
      ],
      "type": "VEC3"
    },
    {
      "bufferView": 2,
      "byteOffset": 276948,
      "componentType": 5126,
      "count": 7693,
      "max": [
        1.0,
        1.0,
        1.0
      ],
      "min": [
        -1.0,
        -1.0,
        -1.0
      ],
      "type": "VEC3"
    },
    {
      "bufferView": 3,
      "byteOffset": 123088,
      "componentType": 5126,
      "count": 7693,
      "max": [
        1.0,
        1.0,
        1.0,
        1.0
      ],
      "min": [
        -1.0,
        -1.0,
        -1.0,
        1.0
      ],
      "type": "VEC4"
    },
    {
      "bufferView": 1,
      "byteOffset": 246176,
      "componentType": 5126,
      "count": 7693,
      "max": [
        0.9964861869812012,
        0.9975038766860962
      ],
      "min": [
        0.003312446642667055,
        0.004105403088033199
      ],
      "type": "VEC2"
    },
    {
      "bufferView": 1,
      "byteOffset": 307720,
      "componentType": 5126,
      "count": 7693,
      "max": [
        0.9964861869812012,
        0.9975038766860962
      ],
      "min": [
        0.003312446642667055,
        0.004105403088033199
      ],
      "type": "VEC2"
    },
    {
      "bufferView": 1,
      "byteOffset": 369264,
      "componentType": 5126,
      "count": 7693,
      "max": [
        0.9964861869812012,
        0.9975038766860962
      ],
      "min": [
        0.003312446642667055,
        0.004105403088033199
      ],
      "type": "VEC2"
    },
    {
      "bufferView": 1,
      "byteOffset": 430808,
      "componentType": 5126,
      "count": 7693,
      "max": [
        0.9964861869812012,
        0.9975038766860962
      ],
      "min": [
        0.003312446642667055,
        0.004105403088033199
      ],
      "type": "VEC2"
    },
    {
      "bufferView": 0,
      "byteOffset": 130848,
      "componentType": 5125,
      "count": 32712,
      "type": "SCALAR"
    },
    {
      "bufferView": 2,
      "byteOffset": 369264,
      "componentType": 5126,
      "count": 7693,
      "max": [
        0.13045914471149445,
        1.2991514205932617,
        0.32097184658050537
      ],
      "min": [
        -0.31647324562072754,
        0.00025450109387747943,
        -0.32097184658050537
      ],
      "type": "VEC3"
    },
    {
      "bufferView": 2,
      "byteOffset": 461580,
      "componentType": 5126,
      "count": 7693,
      "max": [
        1.0,
        1.0,
        1.0
      ],
      "min": [
        -1.0,
        -1.0,
        -1.0
      ],
      "type": "VEC3"
    },
    {
      "bufferView": 3,
      "byteOffset": 246176,
      "componentType": 5126,
      "count": 7693,
      "max": [
        1.0,
        1.0,
        1.0,
        1.0
      ],
      "min": [
        -1.0,
        -1.0,
        -1.0,
        1.0
      ],
      "type": "VEC4"
    },
    {
      "bufferView": 1,
      "byteOffset": 492352,
      "componentType": 5126,
      "count": 7693,
      "max": [
        0.9964861869812012,
        0.9975038766860962
      ],
      "min": [
        0.003312446642667055,
        0.004105403088033199
      ],
      "type": "VEC2"
    },
    {
      "bufferView": 1,
      "byteOffset": 553896,
      "componentType": 5126,
      "count": 7693,
      "max": [
        0.9964861869812012,
        0.9975038766860962
      ],
      "min": [
        0.003312446642667055,
        0.004105403088033199
      ],
      "type": "VEC2"
    },
    {
      "bufferView": 1,
      "byteOffset": 615440,
      "componentType": 5126,
      "count": 7693,
      "max": [
        0.9964861869812012,
        0.9975038766860962
      ],
      "min": [
        0.003312446642667055,
        0.004105403088033199
      ],
      "type": "VEC2"
    },
    {
      "bufferView": 1,
      "byteOffset": 676984,
      "componentType": 5126,
      "count": 7693,
      "max": [
        0.9964861869812012,
        0.9975038766860962
      ],
      "min": [
        0.003312446642667055,
        0.004105403088033199
      ],
      "type": "VEC2"
    },
    {
      "bufferView": 0,
      "byteOffset": 261696,
      "componentType": 5125,
      "count": 32712,
      "type": "SCALAR"
    },
    {
      "bufferView": 2,
      "byteOffset": 553896,
      "componentType": 5126,
      "count": 6956,
      "max": [
        0.13045914471149445,
        1.2991514205932617,
        0.32097184658050537
      ],
      "min": [
        -0.31647324562072754,
        0.00025450109387747943,
        -0.32097184658050537
      ],
      "type": "VEC3"
    },
    {
      "bufferView": 2,
      "byteOffset": 637368,
      "componentType": 5126,
      "count": 6956,
      "max": [
        1.0,
        1.0,
        1.0
      ],
      "min": [
        -1.0,
        -1.0,
        -1.0
      ],
      "type": "VEC3"
    },
    {
      "bufferView": 3,
      "byteOffset": 369264,
      "componentType": 5126,
      "count": 6956,
      "max": [
        1.0,
        1.0,
        1.0,
        1.0
      ],
      "min": [
        -1.0,
        -1.0,
        -1.0,
        1.0
      ],
      "type": "VEC4"
    },
    {
      "bufferView": 1,
      "byteOffset": 738528,
      "componentType": 5126,
      "count": 6956,
      "max": [
        0.9934639930725098,
        0.9975038766860962
      ],
      "min": [
        0.005156992934644222,
        0.004105403088033199
      ],
      "type": "VEC2"
    },
    {
      "bufferView": 1,
      "byteOffset": 794176,
      "componentType": 5126,
      "count": 6956,
      "max": [
        0.9934639930725098,
        0.9975038766860962
      ],
      "min": [
        0.005156992934644222,
        0.004105403088033199
      ],
      "type": "VEC2"
    },
    {
      "bufferView": 1,
      "byteOffset": 849824,
      "componentType": 5126,
      "count": 6956,
      "max": [
        0.9934639930725098,
        0.9975038766860962
      ],
      "min": [
        0.005156992934644222,
        0.004105403088033199
      ],
      "type": "VEC2"
    },
    {
      "bufferView": 1,
      "byteOffset": 905472,
      "componentType": 5126,
      "count": 6956,
      "max": [
        0.9934639930725098,
        0.9975038766860962
      ],
      "min": [
        0.005156992934644222,
        0.004105403088033199
      ],
      "type": "VEC2"
    },
    {
      "bufferView": 0,
      "byteOffset": 392544,
      "componentType": 5125,
      "count": 29472,
      "type": "SCALAR"
    },
    {
      "bufferView": 2,
      "byteOffset": 720840,
      "componentType": 5126,
      "count": 4435,
      "max": [
        -0.05041918158531189,
        0.9657919406890869,
        0.2246861755847931
      ],
      "min": [
        -0.08727717399597168,
        0.07035815715789795,
        -0.22172942757606506
      ],
      "type": "VEC3"
    },
    {
      "bufferView": 2,
      "byteOffset": 774060,
      "componentType": 5126,
      "count": 4435,
      "max": [
        1.0,
        1.0,
        1.0
      ],
      "min": [
        -1.0,
        -1.0,
        -1.0
      ],
      "type": "VEC3"
    },
    {
      "bufferView": 3,
      "byteOffset": 480560,
      "componentType": 5126,
      "count": 4435,
      "max": [
        1.0,
        1.0,
        1.0,
        1.0
      ],
      "min": [
        -1.0,
        -1.0,
        -1.0,
        -1.0
      ],
      "type": "VEC4"
    },
    {
      "bufferView": 1,
      "byteOffset": 961120,
      "componentType": 5126,
      "count": 4435,
      "max": [
        0.9978616237640381,
        0.9964759945869446
      ],
      "min": [
        0.0017571828793734312,
        0.0018325061537325382
      ],
      "type": "VEC2"
    },
    {
      "bufferView": 1,
      "byteOffset": 996600,
      "componentType": 5126,
      "count": 4435,
      "max": [
        0.9978616237640381,
        0.9964759945869446
      ],
      "min": [
        0.0017571828793734312,
        0.0018325061537325382
      ],
      "type": "VEC2"
    },
    {
      "bufferView": 1,
      "byteOffset": 1032080,
      "componentType": 5126,
      "count": 4435,
      "max": [
        0.9978616237640381,
        0.9964759945869446
      ],
      "min": [
        0.0017571828793734312,
        0.0018325061537325382
      ],
      "type": "VEC2"
    },
    {
      "bufferView": 1,
      "byteOffset": 1067560,
      "componentType": 5126,
      "count": 4435,
      "max": [
        0.9978616237640381,
        0.9964759945869446
      ],
      "min": [
        0.0017571828793734312,
        0.0018325061537325382
      ],
      "type": "VEC2"
    },
    {
      "bufferView": 0,
      "byteOffset": 510432,
      "componentType": 5125,
      "count": 13794,
      "type": "SCALAR"
    }
  ],
  "asset": {
    "extras": {
      "author": "Mad_Lobster_Workshop (https://sketchfab.com/Mad_Lobster_Workshop)",
      "license": "COPYRIGHT TO Mad_Lobster_Workshop",
      "source": "https://sketchfab.com/3d-models/antique-luggage-hand-cart-type-a-a45da5fb597a4249b592ab6877514d86",
      "title": "Antique Luggage Hand Cart Type A"
    },
    "generator": "Sketchfab-14.87.0",
    "version": "2.0"
  },
  "bufferViews": [
    {
      "buffer": 0,
      "byteLength": 565608,
      "name": "floatBufferViews",
      "target": 34963
    },
    {
      "buffer": 0,
      "byteLength": 1103040,
      "byteOffset": 565608,
      "byteStride": 8,
      "name": "floatBufferViews",
      "target": 34962
    },
    {
      "buffer": 0,
      "byteLength": 827280,
      "byteOffset": 1668648,
      "byteStride": 12,
      "name": "floatBufferViews",
      "target": 34962
    },
    {
      "buffer": 0,
      "byteLength": 551520,
      "byteOffset": 2495928,
      "byteStride": 16,
      "name": "floatBufferViews",
      "target": 34962
    }
  ],
  "buffers": [
    {
      "byteLength": 3047448,
      "uri": "scene.bin"
    }
  ],
  "images": [
    {
      "uri": "textures/Antique_Luggage_Hand_Cart_Type_A_Painted_Red_baseColor.png"
    },
    {
      "uri": "textures/Antique_Luggage_Hand_Cart_Type_A_Painted_Red_metallicRoughness.png"
    },
    {
      "uri": "textures/Antique_Luggage_Hand_Cart_Type_A_Painted_Red_normal.png"
    },
    {
      "uri": "textures/Antique_Luggage_Hand_Cart_Type_A_Wood_01_baseColor.png"
    },
    {
      "uri": "textures/Antique_Luggage_Hand_Cart_Type_A_Wood_01_metallicRoughness.png"
    },
    {
      "uri": "textures/Antique_Luggage_Hand_Cart_Type_A_Wood_01_normal.png"
    },
    {
      "uri": "textures/Antique_Luggage_Hand_Cart_Type_A_Painted_Green_baseColor.png"
    },
    {
      "uri": "textures/Antique_Luggage_Hand_Cart_Type_A_Painted_Green_metallicRoughness.png"
    },
    {
      "uri": "textures/Antique_Luggage_Hand_Cart_Type_A_Painted_Green_normal.png"
    },
    {
      "uri": "textures/Antique_Luggage_Cart_Planks_Wood_01_baseColor.png"
    },
    {
      "uri": "textures/Antique_Luggage_Cart_Planks_Wood_01_metallicRoughness.png"
    },
    {
      "uri": "textures/Antique_Luggage_Cart_Planks_Wood_01_normal.png"
    }
  ],
  "materials": [
    {
      "doubleSided": true,
      "name": "Antique_Luggage_Hand_Cart_Type_A_Painted_Red",
      "normalTexture": {
        "index": 2
      },
      "pbrMetallicRoughness": {
        "baseColorTexture": {
          "index": 0
        },
        "metallicRoughnessTexture": {
          "index": 1
        }
      }
    },
    {
      "doubleSided": true,
      "name": "Antique_Luggage_Hand_Cart_Type_A_Wood_01",
      "normalTexture": {
        "index": 5
      },
      "pbrMetallicRoughness": {
        "baseColorTexture": {
          "index": 3
        },
        "metallicRoughnessTexture": {
          "index": 4
        }
      }
    },
    {
      "doubleSided": true,
      "name": "Antique_Luggage_Hand_Cart_Type_A_Painted_Green",
      "normalTexture": {
        "index": 8
      },
      "pbrMetallicRoughness": {
        "baseColorTexture": {
          "index": 6
        },
        "metallicRoughnessTexture": {
          "index": 7
        }
      }
    },
    {
      "doubleSided": true,
      "name": "Antique_Luggage_Cart_Planks_Wood_01",
      "normalTexture": {
        "index": 11
      },
      "pbrMetallicRoughness": {
        "baseColorTexture": {
          "index": 9
        },
        "metallicRoughnessTexture": {
          "index": 10
        }
      }
    }
  ],
  "meshes": [
    {
      "name": "Object_0",
      "primitives": [
        {
          "attributes": {
            "NORMAL": 1,
            "POSITION": 0,
            "TANGENT": 2,
            "TEXCOORD_0": 3,
            "TEXCOORD_1": 4,
            "TEXCOORD_2": 5,
            "TEXCOORD_3": 6
          },
          "indices": 7,
          "material": 0,
          "mode": 4
        }
      ]
    },
    {
      "name": "Object_1",
      "primitives": [
        {
          "attributes": {
            "NORMAL": 9,
            "POSITION": 8,
            "TANGENT": 10,
            "TEXCOORD_0": 11,
            "TEXCOORD_1": 12,
            "TEXCOORD_2": 13,
            "TEXCOORD_3": 14
          },
          "indices": 15,
          "material": 1,
          "mode": 4
        }
      ]
    },
    {
      "name": "Object_2",
      "primitives": [
        {
          "attributes": {
            "NORMAL": 17,
            "POSITION": 16,
            "TANGENT": 18,
            "TEXCOORD_0": 19,
            "TEXCOORD_1": 20,
            "TEXCOORD_2": 21,
            "TEXCOORD_3": 22
          },
          "indices": 23,
          "material": 2,
          "mode": 4
        }
      ]
    },
    {
      "name": "Object_3",
      "primitives": [
        {
          "attributes": {
            "NORMAL": 25,
            "POSITION": 24,
            "TANGENT": 26,
            "TEXCOORD_0": 27,
            "TEXCOORD_1": 28,
            "TEXCOORD_2": 29,
            "TEXCOORD_3": 30
          },
          "indices": 31,
          "material": 2,
          "mode": 4
        }
      ]
    },
    {
      "name": "Object_4",
      "primitives": [
        {
          "attributes": {
            "NORMAL": 33,
            "POSITION": 32,
            "TANGENT": 34,
            "TEXCOORD_0": 35,
            "TEXCOORD_1": 36,
            "TEXCOORD_2": 37,
            "TEXCOORD_3": 38
          },
          "indices": 39,
          "material": 3,
          "mode": 4
        }
      ]
    }
  ],
  "nodes": [
    {
      "children": [
        1
      ],
      "matrix": [
        1.0,
        0.0,
        0.0,
        0.0,
        0.0,
        2.220446049250313e-16,
        -1.0,
        0.0,
        0.0,
        1.0,
        2.220446049250313e-16,
        0.0,
        0.0,
        0.0,
        0.0,
        1.0
      ],
      "name": "Sketchfab_model"
    },
    {
      "children": [
        2
      ],
      "name": "root"
    },
    {
      "children": [
        3,
        5,
        7,
        9
      ],
      "matrix": [
        1.0,
        0.0,
        0.0,
        0.0,
        0.0,
        2.220446049250313e-16,
        1.0,
        0.0,
        0.0,
        -1.0,
        2.220446049250313e-16,
        0.0,
        0.0,
        0.0,
        0.0,
        1.0
      ],
      "name": "GLTF_SceneRootNode"
    },
    {
      "children": [
        4
      ],
      "matrix": [
        1.0,
        0.0,
        0.0,
        0.0,
        0.0,
        1.0,
        0.0,
        0.0,
        0.0,
        0.0,
        1.0,
        0.0,
        -1.337433099746704,
        0.0,
        0.0,
        1.0
      ],
      "name": "Antique Luggage Hand Cart Type A Painted Red_0"
    },
    {
      "mesh": 0,
      "name": "Object_4"
    },
    {
      "children": [
        6
      ],
      "matrix": [
        1.0,
        0.0,
        0.0,
        0.0,
        0.0,
        1.0,
        0.0,
        0.0,
        0.0,
        0.0,
        1.0,
        0.0,
        -0.3927420675754547,
        0.0,
        0.0,
        1.0
      ],
      "name": "Antique Luggage Hand Cart Type A Wood 01_1"
    },
    {
      "mesh": 1,
      "name": "Object_6"
    },
    {
      "children": [
        8
      ],
      "matrix": [
        1.0,
        0.0,
        0.0,
        0.0,
        0.0,
        1.0,
        0.0,
        0.0,
        0.0,
        0.0,
        1.0,
        0.0,
        0.48368874192237854,
        0.0,
        0.0,
        1.0
      ],
      "name": "Antique Luggage Hand Cart Type A Painted Green_2"
    },
    {
      "mesh": 2,
      "name": "Object_8"
    },
    {
      "children": [
        10,
        11
      ],
      "matrix": [
        1.0,
        0.0,
        0.0,
        0.0,
        0.0,
        1.0,
        0.0,
        0.0,
        0.0,
        0.0,
        1.0,
        0.0,
        1.275007963180542,
        0.0,
        0.0,
        1.0
      ],
      "name": "Antique Luggage Hand Cart Type A Planks_3"
    },
    {
      "mesh": 3,
      "name": "Object_10"
    },
    {
      "mesh": 4,
      "name": "Object_11"
    }
  ],
  "samplers": [
    {
      "magFilter": 9729,
      "minFilter": 9987,
      "wrapS": 10497,
      "wrapT": 10497
    }
  ],
  "scene": 0,
  "scenes": [
    {
      "name": "Sketchfab_Scene",
      "nodes": [
        0
      ]
    }
  ],
  "textures": [
    {
      "sampler": 0,
      "source": 0
    },
    {
      "sampler": 0,
      "source": 1
    },
    {
      "sampler": 0,
      "source": 2
    },
    {
      "sampler": 0,
      "source": 3
    },
    {
      "sampler": 0,
      "source": 4
    },
    {
      "sampler": 0,
      "source": 5
    },
    {
      "sampler": 0,
      "source": 6
    },
    {
      "sampler": 0,
      "source": 7
    },
    {
      "sampler": 0,
      "source": 8
    },
    {
      "sampler": 0,
      "source": 9
    },
    {
      "sampler": 0,
      "source": 10
    },
    {
      "sampler": 0,
      "source": 11
    }
  ]
}
