{
  "accessors": [
    {
      "bufferView": 2,
      "componentType": 5126,
      "count": 1634,
      "max": [
        90.0,
        90.0,
        0.0
      ],
      "min": [
        -90.0,
        -90.0,
        -26.38344383239746
      ],
      "type": "VEC3"
    },
    {
      "bufferView": 2,
      "byteOffset": 19608,
      "componentType": 5126,
      "count": 1634,
      "max": [
        1.0,
        1.0,
        1.0
      ],
      "min": [
        -1.0,
        -1.0,
        -1.0
      ],
      "type": "VEC3"
    },
    {
      "bufferView": 1,
      "componentType": 5126,
      "count": 1634,
      "max": [
        4.525000095367432,
        4.525000095367432
      ],
      "min": [
        -4.474999904632568,
        -4.474999904632568
      ],
      "type": "VEC2"
    },
    {
      "bufferView": 0,
      "componentType": 5125,
      "count": 7680,
      "type": "SCALAR"
    },
    {
      "bufferView": 2,
      "byteOffset": 39216,
      "componentType": 5126,
      "count": 410,
      "max": [
        65.37525939941406,
        65.37525939941406,
        -23.66257095336914
      ],
      "min": [
        -65.37525939941406,
        -65.37525939941406,
        -25.662586212158203
      ],
      "type": "VEC3"
    },
    {
      "bufferView": 2,
      "byteOffset": 44136,
      "componentType": 5126,
      "count": 410,
      "max": [
        1.0,
        1.0,
        1.0
      ],
      "min": [
        -1.0,
        -1.0,
        -1.0
      ],
      "type": "VEC3"
    },
    {
      "bufferView": 1,
      "byteOffset": 13072,
      "componentType": 5126,
      "count": 410,
      "max": [
        3.2937629222869873,
        3.2937629222869873
      ],
      "min": [
        -3.243762969970703,
        -3.243762969970703
      ],
      "type": "VEC2"
    },
    {
      "bufferView": 0,
      "byteOffset": 30720,
      "componentType": 5125,
      "count": 1920,
      "type": "SCALAR"
    }
  ],
  "asset": {
    "extras": {
      "author": "LIGHTSTAR GROUP (https://sketchfab.com/LIGHT_STAR_GROUP)",
      "license": "CC-BY-4.0 (http://creativecommons.org/licenses/by/4.0/)",
      "source": "https://sketchfab.com/3d-models/216902-216904-urbano-lightstar-overhead-light-d8831ebe4d4843d7a0565e6444c5ca5c",
      "title": "216902, 216904 Urbano Lightstar Overhead light"
    },
    "generator": "Sketchfab-15.55.0",
    "version": "2.0"
  },
  "bufferViews": [
    {
      "buffer": 0,
      "byteLength": 38400,
      "name": "floatBufferViews",
      "target": 34963
    },
    {
      "buffer": 0,
      "byteLength": 16352,
      "byteOffset": 38400,
      "byteStride": 8,
      "name": "floatBufferViews",
      "target": 34962
    },
    {
      "buffer": 0,
      "byteLength": 49056,
      "byteOffset": 54752,
      "byteStride": 12,
      "name": "floatBufferViews",
      "target": 34962
    }
  ],
  "buffers": [
    {
      "byteLength": 103808,
      "uri": "scene.bin"
    }
  ],
  "materials": [
    {
      "doubleSided": true,
      "name": "Kraska_White_Bump",
      "pbrMetallicRoughness": {
        "metallicFactor": 0.0,
        "roughnessFactor": 0.6
      }
    },
    {
      "doubleSided": true,
      "emissiveFactor": [
        0.8098323171,
        0.8098323171,
        0.8098323171
      ],
      "name": "Glass_mat_white",
      "pbrMetallicRoughness": {
        "metallicFactor": 0.0,
        "roughnessFactor": 0.6
      }
    }
  ],
  "meshes": [
    {
      "name": "2169xx_Urbano_Lightstar_Kraska_White_Bump_0",
      "primitives": [
        {
          "attributes": {
            "NORMAL": 1,
            "POSITION": 0,
            "TEXCOORD_0": 2
          },
          "indices": 3,
          "material": 0,
          "mode": 4
        }
      ]
    },
    {
      "name": "2169xx_Urbano_Lightstar_Glass_mat_white_0",
      "primitives": [
        {
          "attributes": {
            "NORMAL": 5,
            "POSITION": 4,
            "TEXCOORD_0": 6
          },
          "indices": 7,
          "material": 1,
          "mode": 4
        }
      ]
    }
  ],
  "nodes": [
    {
      "children": [
        1
      ],
      "matrix": [
        1.0,
        0.0,
        0.0,
        0.0,
        0.0,
        2.220446049250313e-16,
        -1.0,
        0.0,
        0.0,
        1.0,
        2.220446049250313e-16,
        0.0,
        0.0,
        0.0,
        0.0,
        1.0
      ],
      "name": "Sketchfab_model"
    },
    {
      "children": [
        2
      ],
      "matrix": [
        1.0,
        0.0,
        0.0,
        0.0,
        0.0,
        0.0,
        1.0,
        0.0,
        0.0,
        -1.0,
        0.0,
        0.0,
        0.0,
        0.0,
        0.0,
        1.0
      ],
      "name": "72fecc50f3d247778e0aa58ff3aa713d.fbx"
    },
    {
      "children": [
        3
      ],
      "name": "RootNode"
    },
    {
      "children": [
        4,
        5
      ],
      "matrix": [
        1.0,
        0.0,
        0.0,
        0.0,
        0.0,
        2.220446049250313e-16,
        -1.0,
        0.0,
        0.0,
        1.0,
        2.220446049250313e-16,
        0.0,
        0.0,
        26.383441925048828,
        0.0,
        1.0
      ],
      "name": "2169xx_Urbano_Lightstar"
    },
    {
      "mesh": 0,
      "name": "2169xx_Urbano_Lightstar_Kraska_White_Bump_0"
    },
    {
      "mesh": 1,
      "name": "2169xx_Urbano_Lightstar_Glass_mat_white_0"
    }
  ],
  "scene": 0,
  "scenes": [
    {
      "name": "Sketchfab_Scene",
      "nodes": [
        0
      ]
    }
  ]
}
