{
  "accessors": [
    {
      "bufferView": 2,
      "componentType": 5126,
      "count": 1536,
      "max": [
        1.3048523664474487,
        0.525454580783844,
        1.302616000175476
      ],
      "min": [
        -1.2903690338134766,
        0.11269661784172058,
        -1.2926597595214844
      ],
      "type": "VEC3"
    },
    {
      "bufferView": 2,
      "byteOffset": 18432,
      "componentType": 5126,
      "count": 1536,
      "max": [
        0.9978991150856018,
        1.0,
        0.9973077774047852
      ],
      "min": [
        -0.9980871081352234,
        -1.0,
        -0.9992914199829102
      ],
      "type": "VEC3"
    },
    {
      "bufferView": 3,
      "componentType": 5126,
      "count": 1536,
      "max": [
        0.9999938011169434,
        0.993636965751648,
        0.9999431371688843,
        1.0
      ],
      "min": [
        -0.9999481439590454,
        -0.8650395274162292,
        -0.9999518394470215,
        1.0
      ],
      "type": "VEC4"
    },
    {
      "bufferView": 1,
      "componentType": 5126,
      "count": 1536,
      "max": [
        0.9914236068725586,
        0.9950169324874878
      ],
      "min": [
        0.004655107855796814,
        0.5826103091239929
      ],
      "type": "VEC2"
    },
    {
      "bufferView": 1,
      "byteOffset": 12288,
      "componentType": 5126,
      "count": 1536,
      "max": [
        0.9914236068725586,
        0.9950169324874878
      ],
      "min": [
        0.004655107855796814,
        0.5826103091239929
      ],
      "type": "VEC2"
    },
    {
      "bufferView": 1,
      "byteOffset": 24576,
      "componentType": 5126,
      "count": 1536,
      "max": [
        0.9914236068725586,
        0.9950169324874878
      ],
      "min": [
        0.004655107855796814,
        0.5826103091239929
      ],
      "type": "VEC2"
    },
    {
      "bufferView": 1,
      "byteOffset": 36864,
      "componentType": 5126,
      "count": 1536,
      "max": [
        0.9914236068725586,
        0.9950169324874878
      ],
      "min": [
        0.004655107855796814,
        0.5826103091239929
      ],
      "type": "VEC2"
    },
    {
      "bufferView": 1,
      "byteOffset": 49152,
      "componentType": 5126,
      "count": 1536,
      "max": [
        0.9914236068725586,
        0.9950169324874878
      ],
      "min": [
        0.004655107855796814,
        0.5826103091239929
      ],
      "type": "VEC2"
    },
    {
      "bufferView": 0,
      "componentType": 5125,
      "count": 6906,
      "type": "SCALAR"
    },
    {
      "bufferView": 2,
      "byteOffset": 36864,
      "componentType": 5126,
      "count": 1282,
      "max": [
        0.8784481883049011,
        0.8380317091941833,
        1.0109405517578125
      ],
      "min": [
        -0.9872415065765381,
        0.11639698594808578,
        -0.8781849145889282
      ],
      "type": "VEC3"
    },
    {
      "bufferView": 2,
      "byteOffset": 52248,
      "componentType": 5126,
      "count": 1282,
      "max": [
        0.999924898147583,
        0.9999538660049438,
        0.999910831451416
      ],
      "min": [
        -0.999117374420166,
        -0.9957194328308105,
        -0.9996374845504761
      ],
      "type": "VEC3"
    },
    {
      "bufferView": 1,
      "byteOffset": 61440,
      "componentType": 5126,
      "count": 1282,
      "max": [
        0.9818659424781799,
        0.59727942943573
      ],
      "min": [
        0.013347509317100048,
        0.01993403397500515
      ],
      "type": "VEC2"
    },
    {
      "bufferView": 1,
      "byteOffset": 71696,
      "componentType": 5126,
      "count": 1282,
      "max": [
        0.9818659424781799,
        0.59727942943573
      ],
      "min": [
        0.013347509317100048,
        0.01993403397500515
      ],
      "type": "VEC2"
    },
    {
      "bufferView": 0,
      "byteOffset": 27624,
      "componentType": 5125,
      "count": 5277,
      "type": "SCALAR"
    }
  ],
  "asset": {
    "extras": {
      "author": "Glowbox 3D (https://sketchfab.com/ra3id)",
      "license": "CC-BY-4.0 (http://creativecommons.org/licenses/by/4.0/)",
      "source": "https://sketchfab.com/3d-models/ashtray-used-e15c6a08493a495f99970bc2e951083a",
      "title": "Ashtray (used)"
    },
    "generator": "Sketchfab-15.22.0",
    "version": "2.0"
  },
  "bufferViews": [
    {
      "buffer": 0,
      "byteLength": 48732,
      "name": "floatBufferViews",
      "target": 34963
    },
    {
      "buffer": 0,
      "byteLength": 81952,
      "byteOffset": 48732,
      "byteStride": 8,
      "name": "floatBufferViews",
      "target": 34962
    },
    {
      "buffer": 0,
      "byteLength": 67632,
      "byteOffset": 130684,
      "byteStride": 12,
      "name": "floatBufferViews",
      "target": 34962
    },
    {
      "buffer": 0,
      "byteLength": 24576,
      "byteOffset": 198316,
      "byteStride": 16,
      "name": "floatBufferViews",
      "target": 34962
    }
  ],
  "buffers": [
    {
      "byteLength": 222892,
      "uri": "scene.bin"
    }
  ],
  "images": [
    {
      "uri": "textures/Material.001_baseColor.png"
    },
    {
      "uri": "textures/Material.001_metallicRoughness.png"
    },
    {
      "uri": "textures/Material.001_normal.png"
    },
    {
      "uri": "textures/Material.000_baseColor.png"
    }
  ],
  "materials": [
    {
      "doubleSided": true,
      "name": "Material.001",
      "normalTexture": {
        "index": 2
      },
      "pbrMetallicRoughness": {
        "baseColorTexture": {
          "index": 0
        },
        "metallicRoughnessTexture": {
          "index": 1
        }
      }
    },
    {
      "doubleSided": true,
      "name": "Material.000",
      "pbrMetallicRoughness": {
        "baseColorTexture": {
          "index": 3
        },
        "roughnessFactor": 0.9468368902439024
      }
    }
  ],
  "meshes": [
    {
      "name": "Object_0",
      "primitives": [
        {
          "attributes": {
            "NORMAL": 1,
            "POSITION": 0,
            "TANGENT": 2,
            "TEXCOORD_0": 3,
            "TEXCOORD_1": 4,
            "TEXCOORD_2": 5,
            "TEXCOORD_3": 6,
            "TEXCOORD_4": 7
          },
          "indices": 8,
          "material": 0,
          "mode": 4
        }
      ]
    },
    {
      "name": "Object_1",
      "primitives": [
        {
          "attributes": {
            "NORMAL": 10,
            "POSITION": 9,
            "TEXCOORD_0": 11,
            "TEXCOORD_1": 12
          },
          "indices": 13,
          "material": 1,
          "mode": 4
        }
      ]
    }
  ],
  "nodes": [
    {
      "children": [
        1
      ],
      "matrix": [
        1.0,
        0.0,
        0.0,
        0.0,
        0.0,
        2.220446049250313e-16,
        -1.0,
        0.0,
        0.0,
        1.0,
        2.220446049250313e-16,
        0.0,
        0.0,
        0.0,
        0.0,
        1.0
      ],
      "name": "Sketchfab_model"
    },
    {
      "children": [
        2
      ],
      "name": "root"
    },
    {
      "children": [
        3
      ],
      "matrix": [
        1.0,
        0.0,
        0.0,
        0.0,
        0.0,
        2.220446049250313e-16,
        1.0,
        0.0,
        0.0,
        -1.0,
        2.220446049250313e-16,
        0.0,
        0.0,
        0.0,
        0.0,
        1.0
      ],
      "name": "GLTF_SceneRootNode"
    },
    {
      "children": [
        4,
        5
      ],
      "name": "Cylinder_0"
    },
    {
      "mesh": 0,
      "name": "Object_4"
    },
    {
      "mesh": 1,
      "name": "Object_5"
    }
  ],
  "samplers": [
    {
      "magFilter": 9729,
      "minFilter": 9987,
      "wrapS": 10497,
      "wrapT": 10497
    }
  ],
  "scene": 0,
  "scenes": [
    {
      "name": "Sketchfab_Scene",
      "nodes": [
        0
      ]
    }
  ],
  "textures": [
    {
      "sampler": 0,
      "source": 0
    },
    {
      "sampler": 0,
      "source": 1
    },
    {
      "sampler": 0,
      "source": 2
    },
    {
      "sampler": 0,
      "source": 3
    }
  ]
}
