{
  "accessors": [
    {
      "bufferView": 2,
      "componentType": 5126,
      "count": 7560,
      "max": [
        1.3656367063522339,
        1.4953685998916626,
        1.4322203397750854
      ],
      "min": [
        -14.495877265930176,
        -1.583487868309021,
        -6.64355993270874
      ],
      "type": "VEC3"
    },
    {
      "bufferView": 2,
      "byteOffset": 90720,
      "componentType": 5126,
      "count": 7560,
      "max": [
        0.8829588294029236,
        0.9999516010284424,
        0.9999579787254333
      ],
      "min": [
        -0.883045494556427,
        -0.9999769926071167,
        -0.999957799911499
      ],
      "type": "VEC3"
    },
    {
      "bufferView": 3,
      "componentType": 5126,
      "count": 7560,
      "max": [
        0.9996228814125061,
        0.2570458650588989,
        0.8230728507041931,
        1.0
      ],
      "min": [
        0.4688669741153717,
        -0.18604901432991028,
        -0.8831974864006042,
        1.0
      ],
      "type": "VEC4"
    },
    {
      "bufferView": 1,
      "componentType": 5126,
      "count": 7560,
      "max": [
        0.9864079356193542,
        0.1809406876564026
      ],
      "min": [
        0.0,
        0.1328125
      ],
      "type": "VEC2"
    },
    {
      "bufferView": 0,
      "componentType": 5125,
      "count": 42600,
      "type": "SCALAR"
    },
    {
      "bufferView": 2,
      "byteOffset": 181440,
      "componentType": 5126,
      "count": 6048,
      "max": [
        -0.9831262230873108,
        1.6541262865066528,
        1.2435137033462524
      ],
      "min": [
        -15.653603553771973,
        -1.2999216318130493,
        -5.928702354431152
      ],
      "type": "VEC3"
    },
    {
      "bufferView": 2,
      "byteOffset": 254016,
      "componentType": 5126,
      "count": 6048,
      "max": [
        0.9980870485305786,
        0.9999982118606567,
        0.9997518062591553
      ],
      "min": [
        -0.999543309211731,
        -0.9999971985816956,
        -0.9998407959938049
      ],
      "type": "VEC3"
    },
    {
      "bufferView": 3,
      "byteOffset": 120960,
      "componentType": 5126,
      "count": 6048,
      "max": [
        0.999610960483551,
        0.11818433552980423,
        0.8989195227622986,
        1.0
      ],
      "min": [
        -0.6407901644706726,
        -0.8050549030303955,
        -0.9995170831680298,
        1.0
      ],
      "type": "VEC4"
    },
    {
      "bufferView": 1,
      "byteOffset": 60480,
      "componentType": 5126,
      "count": 6048,
      "max": [
        0.9999794960021973,
        0.1311360001564026
      ],
      "min": [
        0.0,
        0.0
      ],
      "type": "VEC2"
    },
    {
      "bufferView": 0,
      "byteOffset": 170400,
      "componentType": 5125,
      "count": 31872,
      "type": "SCALAR"
    }
  ],
  "asset": {
    "extras": {
      "author": "crisanim3d (https://sketchfab.com/cristina.spalatelu)",
      "license": "CC-BY-4.0 (http://creativecommons.org/licenses/by/4.0/)",
      "source": "https://sketchfab.com/3d-models/cables-f4ea84d06fb04275bc2d30741bad1680",
      "title": "Cables"
    },
    "generator": "Sketchfab-15.97.0",
    "version": "2.0"
  },
  "bufferViews": [
    {
      "buffer": 0,
      "byteLength": 297888,
      "name": "floatBufferViews",
      "target": 34963
    },
    {
      "buffer": 0,
      "byteLength": 108864,
      "byteOffset": 297888,
      "byteStride": 8,
      "name": "floatBufferViews",
      "target": 34962
    },
    {
      "buffer": 0,
      "byteLength": 326592,
      "byteOffset": 406752,
      "byteStride": 12,
      "name": "floatBufferViews",
      "target": 34962
    },
    {
      "buffer": 0,
      "byteLength": 217728,
      "byteOffset": 733344,
      "byteStride": 16,
      "name": "floatBufferViews",
      "target": 34962
    }
  ],
  "buffers": [
    {
      "byteLength": 951072,
      "uri": "scene.bin"
    }
  ],
  "images": [
    {
      "uri": "textures/material_0_baseColor.png"
    },
    {
      "uri": "textures/material_0_metallicRoughness.png"
    },
    {
      "uri": "textures/material_0_normal.png"
    }
  ],
  "materials": [
    {
      "doubleSided": true,
      "name": "material_0",
      "normalTexture": {
        "index": 2
      },
      "pbrMetallicRoughness": {
        "baseColorTexture": {
          "index": 0
        },
        "metallicRoughnessTexture": {
          "index": 1
        }
      }
    }
  ],
  "meshes": [
    {
      "name": "Object_0",
      "primitives": [
        {
          "attributes": {
            "NORMAL": 1,
            "POSITION": 0,
            "TANGENT": 2,
            "TEXCOORD_0": 3
          },
          "indices": 4,
          "material": 0,
          "mode": 4
        }
      ]
    },
    {
      "name": "Object_1",
      "primitives": [
        {
          "attributes": {
            "NORMAL": 6,
            "POSITION": 5,
            "TANGENT": 7,
            "TEXCOORD_0": 8
          },
          "indices": 9,
          "material": 0,
          "mode": 4
        }
      ]
    }
  ],
  "nodes": [
    {
      "children": [
        1
      ],
      "matrix": [
        1.0,
        0.0,
        0.0,
        0.0,
        0.0,
        2.220446049250313e-16,
        -1.0,
        0.0,
        0.0,
        1.0,
        2.220446049250313e-16,
        0.0,
        0.0,
        0.0,
        0.0,
        1.0
      ],
      "name": "Sketchfab_model"
    },
    {
      "children": [
        2,
        3
      ],
      "name": "Cable.obj.cleaner.materialmerger.gles"
    },
    {
      "mesh": 0,
      "name": "Object_2"
    },
    {
      "mesh": 1,
      "name": "Object_3"
    }
  ],
  "samplers": [
    {
      "magFilter": 9729,
      "minFilter": 9987,
      "wrapS": 10497,
      "wrapT": 10497
    }
  ],
  "scene": 0,
  "scenes": [
    {
      "name": "Sketchfab_Scene",
      "nodes": [
        0
      ]
    }
  ],
  "textures": [
    {
      "sampler": 0,
      "source": 0
    },
    {
      "sampler": 0,
      "source": 1
    },
    {
      "sampler": 0,
      "source": 2
    }
  ]
}
